<?xml version="1.0" encoding="UTF-8"?>

<svg xmlns="http://www.w3.org/2000/svg" height="300" width="300">
    <a id="tree">
        <rect x="25" y="25" rx="10" ry="10" width="250" height="250" fill="rgb(224,255,255)" fill-opacity="0.4" stroke=" black" stroke-width="6" />
        
        <polygon points="150,130 120,260 180,260" style="fill:rgb(255,192,037);stroke:black;stroke-width:2" />
        
        <path d="M 150 130 q -50 -10 -80 70" stroke=" black"
        stroke-width="5" fill="none" />
        <path d="M 150 130 q 60 -10 80 70" stroke=" black"
        stroke-width="5" fill="none" />
        <path d="M 150 130 q -90 -30 -80 70" stroke=" black"
        stroke-width="5" fill="none" />
        <path d="M 150 130 q 100 -50 80 70" stroke=" black"
        stroke-width="5" fill="none" />
        <path d="M 150 130 q 60 -50 100 -40" stroke=" black"
        stroke-width="5" fill="none" />
        <path d="M 150 130 q -20 -60 100 -40" stroke=" black"
        stroke-width="5" fill="none" />
        <path d="M 150 130 q -60 -40 -100 -40" stroke=" black"
        stroke-width="5" fill="none" />
        <path d="M 150 130 q -30 -80 -100 -40" stroke=" black"
        stroke-width="5" fill="none" />
        <path d="M 150 130 q -40 -80 40 -93" stroke=" black"
        stroke-width="5" fill="none" />
        <path d="M 150 130 q 5 -80 40 -93" stroke=" black"
        stroke-width="5" fill="none" />
        

    </a>
</svg>